# MagicaVoxel @ Ephtracy

# group
o 

# material
mtllib blue_car.mtl
usemtl palette

# normals
vn -1 0 0
vn 1 0 0
vn 0 0 1
vn 0 0 -1
vn 0 -1 0
vn 0 1 0

# texcoords
vt 0.400391 0.5
vt 0.404297 0.5
vt 0.751953 0.5
vt 0.822266 0.5
vt 0.841797 0.5
vt 0.958984 0.5
vt 0.982422 0.5
vt 0.994141 0.5

# verts
v 2 3.1 -1.8
v 2 3.1 -1.9
v 2 3.3 -1.8
v 2 3.3 -1.9
v 2.1 2.8 -1.6
v 2.1 2.8 -1.9
v 2.1 2.8 -2
v 2.1 2.8 -2.3
v 2.1 2.9 -1.5
v 2.1 2.9 -1.6
v 2.1 2.9 -1.7
v 2.1 2.9 -1.8
v 2.1 2.9 -1.9
v 2.1 2.9 -2
v 2.1 2.9 -2.1
v 2.1 2.9 -2.2
v 2.1 2.9 -2.3
v 2.1 2.9 -2.5
v 2.1 3 -1.5
v 2.1 3 -1.6
v 2.1 3 -1.7
v 2.1 3 -1.8
v 2.1 3 -1.9
v 2.1 3 -2
v 2.1 3 -2.1
v 2.1 3 -2.2
v 2.1 3 -2.3
v 2.1 3 -2.5
v 2.1 3.1 -1.5
v 2.1 3.1 -1.6
v 2.1 3.1 -1.8
v 2.1 3.1 -1.9
v 2.1 3.1 -2
v 2.1 3.1 -2.3
v 2.1 3.1 -2.5
v 2.1 3.3 -1.5
v 2.1 3.3 -1.8
v 2.1 3.3 -1.9
v 2.1 3.3 -2.5
v 2.2 3.3 -1.8
v 2.2 3.3 -1.9
v 2.2 3.3 -2.2
v 2.2 3.3 -2.3
v 2.2 3.4 -1.9
v 2.2 3.4 -2.2
v 2.2 3.5 -1.8
v 2.2 3.5 -2.3
v 2.3 3.3 -2.4
v 2.3 3.3 -2.5
v 2.3 3.4 -2.4
v 2.3 3.4 -2.5
v 2.7 2.9 -1.5
v 2.7 2.9 -1.6
v 2.7 3 -1.5
v 2.7 3 -1.6
v 2.8 2.8 -1.6
v 2.8 2.8 -1.9
v 2.8 2.8 -2
v 2.8 2.8 -2.3
v 2.8 2.9 -1.6
v 2.8 2.9 -1.9
v 2.8 2.9 -2
v 2.8 2.9 -2.3
v 2.3 2.8 -1.6
v 2.3 2.8 -1.9
v 2.3 2.8 -2
v 2.3 2.8 -2.3
v 2.3 2.9 -1.6
v 2.3 2.9 -1.9
v 2.3 2.9 -2
v 2.3 2.9 -2.3
v 2.4 2.9 -1.5
v 2.4 2.9 -1.6
v 2.4 3 -1.5
v 2.4 3 -1.6
v 2.8 3.3 -2.4
v 2.8 3.3 -2.5
v 2.8 3.4 -2.4
v 2.8 3.4 -2.5
v 2.9 3.3 -1.8
v 2.9 3.3 -1.9
v 2.9 3.3 -2.2
v 2.9 3.3 -2.3
v 2.9 3.4 -1.9
v 2.9 3.4 -2.2
v 2.9 3.5 -1.8
v 2.9 3.5 -2.3
v 3 2.8 -1.6
v 3 2.8 -1.9
v 3 2.8 -2
v 3 2.8 -2.3
v 3 2.9 -1.5
v 3 2.9 -1.6
v 3 2.9 -1.7
v 3 2.9 -1.8
v 3 2.9 -1.9
v 3 2.9 -2
v 3 2.9 -2.1
v 3 2.9 -2.2
v 3 2.9 -2.3
v 3 2.9 -2.5
v 3 3 -1.5
v 3 3 -1.6
v 3 3 -1.7
v 3 3 -1.8
v 3 3 -1.9
v 3 3 -2
v 3 3 -2.1
v 3 3 -2.2
v 3 3 -2.3
v 3 3 -2.5
v 3 3.1 -1.5
v 3 3.1 -1.6
v 3 3.1 -1.8
v 3 3.1 -1.9
v 3 3.1 -2
v 3 3.1 -2.3
v 3 3.1 -2.5
v 3 3.3 -1.5
v 3 3.3 -1.8
v 3 3.3 -1.9
v 3 3.3 -2.5
v 3.1 3.1 -1.8
v 3.1 3.1 -1.9
v 3.1 3.3 -1.8
v 3.1 3.3 -1.9
v 2.1 2.9 -1.5
v 2.1 3 -1.5
v 2.1 3.1 -1.5
v 2.1 3.3 -1.5
v 2.3 3 -1.5
v 2.3 3.1 -1.5
v 2.4 2.9 -1.5
v 2.4 3 -1.5
v 2.4 3.1 -1.5
v 2.4 3.3 -1.5
v 2.7 2.9 -1.5
v 2.7 3 -1.5
v 2.7 3.1 -1.5
v 2.7 3.3 -1.5
v 2.8 3 -1.5
v 2.8 3.1 -1.5
v 3 2.9 -1.5
v 3 3 -1.5
v 3 3.1 -1.5
v 3 3.3 -1.5
v 2.1 2.8 -1.6
v 2.1 2.9 -1.6
v 2.3 2.8 -1.6
v 2.3 2.9 -1.6
v 2.4 2.9 -1.6
v 2.4 3 -1.6
v 2.7 2.9 -1.6
v 2.7 3 -1.6
v 2.8 2.8 -1.6
v 2.8 2.9 -1.6
v 3 2.8 -1.6
v 3 2.9 -1.6
v 2 3.1 -1.8
v 2 3.3 -1.8
v 2.1 3.1 -1.8
v 2.1 3.3 -1.8
v 2.2 3.3 -1.8
v 2.2 3.5 -1.8
v 2.4 3.3 -1.8
v 2.4 3.4 -1.8
v 2.7 3.3 -1.8
v 2.7 3.4 -1.8
v 2.9 3.3 -1.8
v 2.9 3.5 -1.8
v 3 3.1 -1.8
v 3 3.3 -1.8
v 3.1 3.1 -1.8
v 3.1 3.3 -1.8
v 2.1 2.8 -2
v 2.1 2.9 -2
v 2.3 2.8 -2
v 2.3 2.9 -2
v 2.8 2.8 -2
v 2.8 2.9 -2
v 3 2.8 -2
v 3 2.9 -2
v 2.3 3.3 -2.4
v 2.3 3.4 -2.4
v 2.8 3.3 -2.4
v 2.8 3.4 -2.4
v 2 3.1 -1.9
v 2 3.3 -1.9
v 2.1 2.8 -1.9
v 2.1 2.9 -1.9
v 2.1 3.1 -1.9
v 2.1 3.3 -1.9
v 2.3 2.8 -1.9
v 2.3 2.9 -1.9
v 2.8 2.8 -1.9
v 2.8 2.9 -1.9
v 3 2.8 -1.9
v 3 2.9 -1.9
v 3 3.1 -1.9
v 3 3.3 -1.9
v 3.1 3.1 -1.9
v 3.1 3.3 -1.9
v 2.1 2.8 -2.3
v 2.1 2.9 -2.3
v 2.2 3.3 -2.3
v 2.2 3.5 -2.3
v 2.3 2.8 -2.3
v 2.3 2.9 -2.3
v 2.8 2.8 -2.3
v 2.8 2.9 -2.3
v 2.9 3.3 -2.3
v 2.9 3.5 -2.3
v 3 2.8 -2.3
v 3 2.9 -2.3
v 2.1 2.9 -2.5
v 2.1 3 -2.5
v 2.1 3.1 -2.5
v 2.1 3.3 -2.5
v 2.3 3.1 -2.5
v 2.3 3.2 -2.5
v 2.3 3.3 -2.5
v 2.3 3.4 -2.5
v 2.4 3.1 -2.5
v 2.4 3.2 -2.5
v 2.4 3.3 -2.5
v 2.7 3.1 -2.5
v 2.7 3.2 -2.5
v 2.7 3.3 -2.5
v 2.8 3.1 -2.5
v 2.8 3.2 -2.5
v 2.8 3.3 -2.5
v 2.8 3.4 -2.5
v 3 2.9 -2.5
v 3 3 -2.5
v 3 3.1 -2.5
v 3 3.3 -2.5
v 2.1 2.8 -1.6
v 2.3 2.8 -1.6
v 2.8 2.8 -1.6
v 3 2.8 -1.6
v 2.1 2.8 -1.9
v 2.3 2.8 -1.9
v 2.8 2.8 -1.9
v 3 2.8 -1.9
v 2.1 2.8 -2
v 2.3 2.8 -2
v 2.8 2.8 -2
v 3 2.8 -2
v 2.1 2.8 -2.3
v 2.3 2.8 -2.3
v 2.8 2.8 -2.3
v 3 2.8 -2.3
v 2.1 2.9 -1.5
v 2.4 2.9 -1.5
v 2.7 2.9 -1.5
v 3 2.9 -1.5
v 2.1 2.9 -1.6
v 2.3 2.9 -1.6
v 2.4 2.9 -1.6
v 2.7 2.9 -1.6
v 2.8 2.9 -1.6
v 3 2.9 -1.6
v 2.1 2.9 -1.9
v 2.3 2.9 -1.9
v 2.8 2.9 -1.9
v 3 2.9 -1.9
v 2.1 2.9 -2
v 2.3 2.9 -2
v 2.8 2.9 -2
v 3 2.9 -2
v 2.1 2.9 -2.3
v 2.3 2.9 -2.3
v 2.8 2.9 -2.3
v 3 2.9 -2.3
v 2.1 2.9 -2.5
v 3 2.9 -2.5
v 2.4 3 -1.5
v 2.7 3 -1.5
v 2.4 3 -1.6
v 2.7 3 -1.6
v 2 3.1 -1.8
v 2.1 3.1 -1.8
v 3 3.1 -1.8
v 3.1 3.1 -1.8
v 2 3.1 -1.9
v 2.1 3.1 -1.9
v 3 3.1 -1.9
v 3.1 3.1 -1.9
v 2.1 3.3 -1.5
v 2.4 3.3 -1.5
v 2.7 3.3 -1.5
v 3 3.3 -1.5
v 2 3.3 -1.8
v 2.1 3.3 -1.8
v 2.2 3.3 -1.8
v 2.4 3.3 -1.8
v 2.7 3.3 -1.8
v 2.9 3.3 -1.8
v 3 3.3 -1.8
v 3.1 3.3 -1.8
v 2 3.3 -1.9
v 2.1 3.3 -1.9
v 2.2 3.3 -1.9
v 2.9 3.3 -1.9
v 3 3.3 -1.9
v 3.1 3.3 -1.9
v 2.2 3.3 -2.2
v 2.9 3.3 -2.2
v 2.2 3.3 -2.3
v 2.9 3.3 -2.3
v 2.3 3.3 -2.4
v 2.8 3.3 -2.4
v 2.1 3.3 -2.5
v 2.3 3.3 -2.5
v 2.8 3.3 -2.5
v 3 3.3 -2.5
v 2.3 3.4 -2.4
v 2.8 3.4 -2.4
v 2.3 3.4 -2.5
v 2.8 3.4 -2.5
v 2.2 3.5 -1.8
v 2.9 3.5 -1.8
v 2.2 3.5 -2.3
v 2.9 3.5 -2.3

# faces
f 3/4/1 2/4/1 1/4/1
f 4/4/1 2/4/1 3/4/1
f 10/8/1 6/8/1 5/8/1
f 11/8/1 6/8/1 10/8/1
f 12/8/1 6/8/1 11/8/1
f 13/8/1 6/8/1 12/8/1
f 14/8/1 8/8/1 7/8/1
f 15/8/1 8/8/1 14/8/1
f 16/8/1 8/8/1 15/8/1
f 17/8/1 8/8/1 16/8/1
f 19/7/1 10/7/1 9/7/1
f 20/8/1 11/8/1 10/8/1
f 20/7/1 10/7/1 19/7/1
f 21/6/1 12/6/1 11/6/1
f 21/8/1 11/8/1 20/8/1
f 22/8/1 13/8/1 12/8/1
f 22/6/1 12/6/1 21/6/1
f 23/7/1 14/7/1 13/7/1
f 23/8/1 13/8/1 22/8/1
f 24/8/1 15/8/1 14/8/1
f 24/7/1 14/7/1 23/7/1
f 25/6/1 16/6/1 15/6/1
f 25/8/1 15/8/1 24/8/1
f 26/8/1 17/8/1 16/8/1
f 26/6/1 16/6/1 25/6/1
f 27/7/1 18/7/1 17/7/1
f 27/8/1 17/8/1 26/8/1
f 28/7/1 18/7/1 27/7/1
f 29/4/1 20/4/1 19/4/1
f 30/8/1 21/8/1 20/8/1
f 30/4/1 20/4/1 29/4/1
f 30/8/1 22/8/1 21/8/1
f 30/8/1 23/8/1 22/8/1
f 31/8/1 23/8/1 30/8/1
f 32/4/1 24/4/1 23/4/1
f 32/8/1 23/8/1 31/8/1
f 33/8/1 26/8/1 25/8/1
f 33/4/1 24/4/1 32/4/1
f 33/8/1 27/8/1 26/8/1
f 33/8/1 25/8/1 24/8/1
f 34/4/1 28/4/1 27/4/1
f 34/8/1 27/8/1 33/8/1
f 35/4/1 28/4/1 34/4/1
f 36/3/1 30/3/1 29/3/1
f 36/3/1 31/3/1 30/3/1
f 37/3/1 31/3/1 36/3/1
f 38/3/1 33/3/1 32/3/1
f 38/3/1 35/3/1 34/3/1
f 38/3/1 34/3/1 33/3/1
f 39/3/1 35/3/1 38/3/1
f 44/6/1 41/6/1 40/6/1
f 44/8/1 42/8/1 41/8/1
f 45/6/1 43/6/1 42/6/1
f 45/8/1 42/8/1 44/8/1
f 46/6/1 44/6/1 40/6/1
f 46/6/1 45/6/1 44/6/1
f 47/6/1 43/6/1 45/6/1
f 47/6/1 45/6/1 46/6/1
f 50/4/1 49/4/1 48/4/1
f 51/4/1 49/4/1 50/4/1
f 54/7/1 53/7/1 52/7/1
f 55/7/1 53/7/1 54/7/1
f 60/8/1 57/8/1 56/8/1
f 61/8/1 57/8/1 60/8/1
f 62/8/1 59/8/1 58/8/1
f 63/8/1 59/8/1 62/8/1
f 64/8/2 65/8/2 68/8/2
f 68/8/2 65/8/2 69/8/2
f 66/8/2 67/8/2 70/8/2
f 70/8/2 67/8/2 71/8/2
f 72/7/2 73/7/2 74/7/2
f 74/7/2 73/7/2 75/7/2
f 76/4/2 77/4/2 78/4/2
f 78/4/2 77/4/2 79/4/2
f 80/6/2 81/6/2 84/6/2
f 81/8/2 82/8/2 84/8/2
f 82/6/2 83/6/2 85/6/2
f 84/8/2 82/8/2 85/8/2
f 80/6/2 84/6/2 86/6/2
f 84/6/2 85/6/2 86/6/2
f 85/6/2 83/6/2 87/6/2
f 86/6/2 85/6/2 87/6/2
f 88/8/2 89/8/2 93/8/2
f 93/8/2 89/8/2 94/8/2
f 94/8/2 89/8/2 95/8/2
f 95/8/2 89/8/2 96/8/2
f 90/8/2 91/8/2 97/8/2
f 97/8/2 91/8/2 98/8/2
f 98/8/2 91/8/2 99/8/2
f 99/8/2 91/8/2 100/8/2
f 92/7/2 93/7/2 102/7/2
f 93/8/2 94/8/2 103/8/2
f 102/7/2 93/7/2 103/7/2
f 94/6/2 95/6/2 104/6/2
f 103/8/2 94/8/2 104/8/2
f 95/8/2 96/8/2 105/8/2
f 104/6/2 95/6/2 105/6/2
f 96/7/2 97/7/2 106/7/2
f 105/8/2 96/8/2 106/8/2
f 97/8/2 98/8/2 107/8/2
f 106/7/2 97/7/2 107/7/2
f 98/6/2 99/6/2 108/6/2
f 107/8/2 98/8/2 108/8/2
f 99/8/2 100/8/2 109/8/2
f 108/6/2 99/6/2 109/6/2
f 100/7/2 101/7/2 110/7/2
f 109/8/2 100/8/2 110/8/2
f 110/7/2 101/7/2 111/7/2
f 102/4/2 103/4/2 112/4/2
f 103/8/2 104/8/2 113/8/2
f 112/4/2 103/4/2 113/4/2
f 104/8/2 105/8/2 113/8/2
f 105/8/2 106/8/2 113/8/2
f 113/8/2 106/8/2 114/8/2
f 106/4/2 107/4/2 115/4/2
f 114/8/2 106/8/2 115/8/2
f 108/8/2 109/8/2 116/8/2
f 115/4/2 107/4/2 116/4/2
f 109/8/2 110/8/2 116/8/2
f 107/8/2 108/8/2 116/8/2
f 110/4/2 111/4/2 117/4/2
f 116/8/2 110/8/2 117/8/2
f 117/4/2 111/4/2 118/4/2
f 112/3/2 113/3/2 119/3/2
f 113/3/2 114/3/2 119/3/2
f 119/3/2 114/3/2 120/3/2
f 115/3/2 116/3/2 121/3/2
f 117/3/2 118/3/2 121/3/2
f 116/3/2 117/3/2 121/3/2
f 121/3/2 118/3/2 122/3/2
f 123/4/2 124/4/2 125/4/2
f 125/4/2 124/4/2 126/4/2
f 131/7/3 128/7/3 127/7/3
f 131/4/3 129/4/3 128/4/3
f 132/3/3 130/3/3 129/3/3
f 132/4/3 129/4/3 131/4/3
f 133/7/3 131/7/3 127/7/3
f 134/6/3 132/6/3 131/6/3
f 134/7/3 131/7/3 133/7/3
f 135/3/3 130/3/3 132/3/3
f 135/6/3 132/6/3 134/6/3
f 136/3/3 130/3/3 135/3/3
f 138/4/3 135/4/3 134/4/3
f 138/4/3 136/4/3 135/4/3
f 139/4/3 136/4/3 138/4/3
f 140/4/3 136/4/3 139/4/3
f 141/7/3 138/7/3 137/7/3
f 141/6/3 139/6/3 138/6/3
f 142/3/3 140/3/3 139/3/3
f 142/6/3 139/6/3 141/6/3
f 143/7/3 141/7/3 137/7/3
f 144/4/3 142/4/3 141/4/3
f 144/7/3 141/7/3 143/7/3
f 145/3/3 140/3/3 142/3/3
f 145/4/3 142/4/3 144/4/3
f 146/3/3 140/3/3 145/3/3
f 149/8/3 148/8/3 147/8/3
f 150/8/3 148/8/3 149/8/3
f 153/7/3 152/7/3 151/7/3
f 154/7/3 152/7/3 153/7/3
f 157/8/3 156/8/3 155/8/3
f 158/8/3 156/8/3 157/8/3
f 161/4/3 160/4/3 159/4/3
f 162/4/3 160/4/3 161/4/3
f 165/6/3 164/6/3 163/6/3
f 166/6/3 164/6/3 165/6/3
f 167/8/3 166/8/3 165/8/3
f 168/6/3 164/6/3 166/6/3
f 168/8/3 166/8/3 167/8/3
f 169/6/3 168/6/3 167/6/3
f 170/6/3 164/6/3 168/6/3
f 170/6/3 168/6/3 169/6/3
f 173/4/3 172/4/3 171/4/3
f 174/4/3 172/4/3 173/4/3
f 177/8/3 176/8/3 175/8/3
f 178/8/3 176/8/3 177/8/3
f 181/8/3 180/8/3 179/8/3
f 182/8/3 180/8/3 181/8/3
f 185/4/3 184/4/3 183/4/3
f 186/4/3 184/4/3 185/4/3
f 187/4/4 188/4/4 191/4/4
f 191/4/4 188/4/4 192/4/4
f 189/8/4 190/8/4 193/8/4
f 193/8/4 190/8/4 194/8/4
f 195/8/4 196/8/4 197/8/4
f 197/8/4 196/8/4 198/8/4
f 199/4/4 200/4/4 201/4/4
f 201/4/4 200/4/4 202/4/4
f 203/8/4 204/8/4 207/8/4
f 207/8/4 204/8/4 208/8/4
f 205/6/4 206/6/4 211/6/4
f 211/6/4 206/6/4 212/6/4
f 209/8/4 210/8/4 213/8/4
f 213/8/4 210/8/4 214/8/4
f 216/4/4 217/4/4 219/4/4
f 217/3/4 218/3/4 219/3/4
f 219/3/4 218/3/4 220/3/4
f 220/3/4 218/3/4 221/3/4
f 216/4/4 219/4/4 223/4/4
f 219/5/4 220/5/4 223/5/4
f 220/3/4 221/3/4 224/3/4
f 223/5/4 220/5/4 224/5/4
f 221/4/4 222/4/4 225/4/4
f 224/3/4 221/3/4 225/3/4
f 223/4/4 224/4/4 226/4/4
f 216/4/4 223/4/4 226/4/4
f 224/4/4 225/4/4 226/4/4
f 226/4/4 225/4/4 227/4/4
f 225/4/4 222/4/4 228/4/4
f 227/4/4 225/4/4 228/4/4
f 226/5/4 227/5/4 229/5/4
f 216/4/4 226/4/4 229/4/4
f 227/3/4 228/3/4 230/3/4
f 229/5/4 227/5/4 230/5/4
f 228/4/4 222/4/4 231/4/4
f 230/3/4 228/3/4 231/3/4
f 231/4/4 222/4/4 232/4/4
f 215/7/4 216/7/4 233/7/4
f 216/4/4 229/4/4 234/4/4
f 233/7/4 216/7/4 234/7/4
f 229/3/4 230/3/4 235/3/4
f 234/4/4 229/4/4 235/4/4
f 230/3/4 231/3/4 235/3/4
f 235/3/4 231/3/4 236/3/4
f 241/8/5 238/8/5 237/8/5
f 242/8/5 238/8/5 241/8/5
f 243/8/5 240/8/5 239/8/5
f 244/8/5 240/8/5 243/8/5
f 249/8/5 246/8/5 245/8/5
f 250/8/5 246/8/5 249/8/5
f 251/8/5 248/8/5 247/8/5
f 252/8/5 248/8/5 251/8/5
f 257/7/5 254/7/5 253/7/5
f 258/7/5 254/7/5 257/7/5
f 259/7/5 254/7/5 258/7/5
f 260/7/5 256/7/5 255/7/5
f 261/7/5 256/7/5 260/7/5
f 262/7/5 256/7/5 261/7/5
f 264/7/5 259/7/5 258/7/5
f 264/7/5 261/7/5 260/7/5
f 264/7/5 260/7/5 259/7/5
f 265/7/5 261/7/5 264/7/5
f 267/7/5 264/7/5 263/7/5
f 267/7/5 266/7/5 265/7/5
f 267/7/5 265/7/5 264/7/5
f 268/7/5 266/7/5 267/7/5
f 269/7/5 266/7/5 268/7/5
f 270/7/5 266/7/5 269/7/5
f 272/7/5 269/7/5 268/7/5
f 273/7/5 269/7/5 272/7/5
f 275/7/5 272/7/5 271/7/5
f 275/7/5 274/7/5 273/7/5
f 275/7/5 273/7/5 272/7/5
f 276/7/5 274/7/5 275/7/5
f 279/4/5 278/4/5 277/4/5
f 280/4/5 278/4/5 279/4/5
f 285/4/5 282/4/5 281/4/5
f 286/4/5 282/4/5 285/4/5
f 287/4/5 284/4/5 283/4/5
f 288/4/5 284/4/5 287/4/5
f 289/3/6 290/3/6 294/3/6
f 294/3/6 290/3/6 295/3/6
f 290/4/6 291/4/6 296/4/6
f 295/3/6 290/3/6 296/3/6
f 291/3/6 292/3/6 297/3/6
f 296/4/6 291/4/6 297/4/6
f 297/3/6 292/3/6 298/3/6
f 298/3/6 292/3/6 299/3/6
f 293/4/6 294/4/6 301/4/6
f 294/3/6 295/3/6 302/3/6
f 301/4/6 294/4/6 302/4/6
f 302/3/6 295/3/6 303/3/6
f 298/3/6 299/3/6 304/3/6
f 299/4/6 300/4/6 305/4/6
f 304/3/6 299/3/6 305/3/6
f 305/4/6 300/4/6 306/4/6
f 302/3/6 303/3/6 307/3/6
f 304/3/6 305/3/6 308/3/6
f 302/3/6 307/3/6 309/3/6
f 308/3/6 305/3/6 310/3/6
f 309/3/6 310/3/6 311/3/6
f 311/3/6 310/3/6 312/3/6
f 302/3/6 309/3/6 313/3/6
f 309/3/6 311/3/6 313/3/6
f 313/3/6 311/3/6 314/3/6
f 312/3/6 310/3/6 315/3/6
f 310/3/6 305/3/6 316/3/6
f 315/3/6 310/3/6 316/3/6
f 317/4/6 318/4/6 319/4/6
f 319/4/6 318/4/6 320/4/6
f 321/6/6 322/6/6 323/6/6
f 323/6/6 322/6/6 324/6/6
