# MagicaVoxel @ Ephtracy

# group
o 

# material
mtllib Fat_Chicken.mtl
usemtl palette

# normals
vn -1 0 0
vn 1 0 0
vn 0 0 1
vn 0 0 -1
vn 0 -1 0
vn 0 1 0

# texcoords
vt 0.0878906 0.5
vt 0.275391 0.5
vt 0.533203 0.5
vt 0.537109 0.5
vt 0.958984 0.5
vt 0.994141 0.5

# verts
v 0.9 3.5 -2.3
v 0.9 3.5 -4.8
v 0.9 5.8 -2.3
v 0.9 5.8 -4.8
v 1.3 3.5 -1.9
v 1.3 3.5 -2.3
v 1.3 3.5 -4.8
v 1.3 3.5 -5.2
v 1.3 5.8 -1.9
v 1.3 5.8 -2.3
v 1.3 5.8 -4.8
v 1.3 5.8 -5.2
v 2.4 4.1 -1.1
v 2.4 4.1 -1.9
v 2.4 4.1 -5.2
v 2.4 4.1 -6
v 2.4 5.2 -1.1
v 2.4 5.2 -1.9
v 2.4 5.2 -5.2
v 2.4 5.2 -6
v 2.6 2 -2.1
v 2.6 2 -3.3
v 2.6 2 -3.7
v 2.6 2 -4.9
v 2.6 2.4 -2.1
v 2.6 2.4 -3.3
v 2.6 2.4 -3.7
v 2.6 2.4 -4.9
v 2.9 5.8 -1.9
v 2.9 5.8 -5.2
v 2.9 8.6 -1.9
v 2.9 8.6 -5.2
v 3.4 2.4 -2.5
v 3.4 2.4 -2.9
v 3.4 2.4 -4.1
v 3.4 2.4 -4.5
v 3.4 3.5 -2.5
v 3.4 3.5 -2.9
v 3.4 3.5 -4.1
v 3.4 3.5 -4.5
v 3.8 8.6 -2.9
v 3.8 8.6 -4.1
v 3.8 9.6 -2.9
v 3.8 9.6 -4.1
v 4.7 7.3 -1.8
v 4.7 7.3 -1.9
v 4.7 7.3 -5.2
v 4.7 7.3 -5.3
v 4.7 7.8 -1.8
v 4.7 7.8 -1.9
v 4.7 7.8 -5.2
v 4.7 7.8 -5.3
v 3.8 2.4 -2.5
v 3.8 2.4 -2.9
v 3.8 2.4 -4.1
v 3.8 2.4 -4.5
v 3.8 3.5 -2.5
v 3.8 3.5 -2.9
v 3.8 3.5 -4.1
v 3.8 3.5 -4.5
v 4.4 2 -2.5
v 4.4 2 -2.9
v 4.4 2 -4.1
v 4.4 2 -4.5
v 4.4 2.4 -2.5
v 4.4 2.4 -2.9
v 4.4 2.4 -4.1
v 4.4 2.4 -4.5
v 5.2 4.1 -5.2
v 5.2 4.1 -6
v 5.2 5.2 -5.2
v 5.2 5.2 -6
v 5.2 7.3 -1.8
v 5.2 7.3 -1.9
v 5.2 7.3 -5.2
v 5.2 7.3 -5.3
v 5.2 7.8 -1.8
v 5.2 7.8 -1.9
v 5.2 7.8 -5.2
v 5.2 7.8 -5.3
v 5.3 2 -2.1
v 5.3 2 -2.5
v 5.3 2 -2.9
v 5.3 2 -3.3
v 5.3 2 -3.7
v 5.3 2 -4.1
v 5.3 2 -4.5
v 5.3 2 -4.9
v 5.3 2.4 -2.1
v 5.3 2.4 -2.5
v 5.3 2.4 -2.9
v 5.3 2.4 -3.3
v 5.3 2.4 -3.7
v 5.3 2.4 -4.1
v 5.3 2.4 -4.5
v 5.3 2.4 -4.9
v 5.3 4.1 -1.1
v 5.3 4.1 -1.9
v 5.3 5.2 -1.1
v 5.3 5.2 -1.9
v 5.4 8.6 -2.9
v 5.4 8.6 -4.1
v 5.4 9.6 -2.9
v 5.4 9.6 -4.1
v 5.9 3.5 -1.9
v 5.9 3.5 -5.2
v 5.9 3.7 -3.4
v 5.9 3.7 -3.5
v 5.9 3.8 -3.3
v 5.9 3.8 -3.4
v 5.9 3.8 -3.5
v 5.9 3.8 -3.6
v 5.9 3.9 -3.2
v 5.9 3.9 -3.3
v 5.9 3.9 -3.6
v 5.9 3.9 -3.7
v 5.9 4 -3.1
v 5.9 4 -3.2
v 5.9 4 -3.7
v 5.9 4 -3.8
v 5.9 4.1 -3
v 5.9 4.1 -3.1
v 5.9 4.1 -3.8
v 5.9 4.1 -3.9
v 5.9 4.2 -3
v 5.9 4.2 -3.1
v 5.9 4.2 -3.8
v 5.9 4.2 -3.9
v 5.9 4.3 -3.1
v 5.9 4.3 -3.2
v 5.9 4.3 -3.7
v 5.9 4.3 -3.8
v 5.9 4.4 -3.2
v 5.9 4.4 -3.3
v 5.9 4.4 -3.6
v 5.9 4.4 -3.7
v 5.9 4.6 -3.2
v 5.9 4.6 -3.3
v 5.9 4.6 -3.6
v 5.9 4.6 -3.7
v 5.9 4.7 -3.1
v 5.9 4.7 -3.2
v 5.9 4.7 -3.7
v 5.9 4.7 -3.8
v 5.9 4.8 -3
v 5.9 4.8 -3.1
v 5.9 4.8 -3.8
v 5.9 4.8 -3.9
v 5.9 5.1 -3
v 5.9 5.1 -3.9
v 5.9 5.5 -2.8
v 5.9 5.5 -4.2
v 5.9 6.5 -2.8
v 5.9 6.5 -4.2
v 5.9 7.5 -2.8
v 5.9 7.5 -4.2
v 5.9 8.6 -1.9
v 5.9 8.6 -5.2
v 6 3.7 -3.4
v 6 3.7 -3.5
v 6 3.8 -3.3
v 6 3.8 -3.4
v 6 3.8 -3.5
v 6 3.8 -3.6
v 6 3.9 -3.2
v 6 3.9 -3.3
v 6 3.9 -3.6
v 6 3.9 -3.7
v 6 4 -3.1
v 6 4 -3.2
v 6 4 -3.7
v 6 4 -3.8
v 6 4.1 -3
v 6 4.1 -3.1
v 6 4.1 -3.8
v 6 4.1 -3.9
v 6 4.2 -3
v 6 4.2 -3.1
v 6 4.2 -3.8
v 6 4.2 -3.9
v 6 4.3 -3.1
v 6 4.3 -3.2
v 6 4.3 -3.7
v 6 4.3 -3.8
v 6 4.4 -3.2
v 6 4.4 -3.3
v 6 4.4 -3.6
v 6 4.4 -3.7
v 6 4.6 -3.2
v 6 4.6 -3.3
v 6 4.6 -3.6
v 6 4.6 -3.7
v 6 4.7 -3.1
v 6 4.7 -3.2
v 6 4.7 -3.7
v 6 4.7 -3.8
v 6 4.8 -3
v 6 4.8 -3.1
v 6 4.8 -3.8
v 6 4.8 -3.9
v 6 5.1 -3
v 6 5.1 -3.9
v 6.9 5.5 -2.8
v 6.9 5.5 -4.2
v 6.9 6.5 -2.8
v 6.9 6.5 -4.2
v 7.4 6.5 -2.8
v 7.4 6.5 -4.2
v 7.4 7.5 -2.8
v 7.4 7.5 -4.2
v 2.4 4.1 -1.1
v 2.4 5.2 -1.1
v 5.3 4.1 -1.1
v 5.3 5.2 -1.1
v 4.7 7.3 -1.8
v 4.7 7.8 -1.8
v 5.2 7.3 -1.8
v 5.2 7.8 -1.8
v 1.3 3.5 -1.9
v 1.3 5.8 -1.9
v 2.4 4.1 -1.9
v 2.4 5.2 -1.9
v 2.9 5.8 -1.9
v 2.9 8.6 -1.9
v 4.7 7.3 -1.9
v 4.7 7.8 -1.9
v 5.2 7.3 -1.9
v 5.2 7.8 -1.9
v 5.3 4.1 -1.9
v 5.3 5.2 -1.9
v 5.9 3.5 -1.9
v 5.9 8.6 -1.9
v 2.6 2 -2.1
v 2.6 2.4 -2.1
v 5.3 2 -2.1
v 5.3 2.4 -2.1
v 0.9 3.5 -2.3
v 0.9 5.8 -2.3
v 1.3 3.5 -2.3
v 1.3 5.8 -2.3
v 3.4 2.4 -2.5
v 3.4 3.5 -2.5
v 3.8 2.4 -2.5
v 3.8 3.5 -2.5
v 5.9 5.5 -2.8
v 5.9 6.5 -2.8
v 5.9 7.5 -2.8
v 6.9 5.5 -2.8
v 6.9 6.5 -2.8
v 7.4 6.5 -2.8
v 7.4 7.5 -2.8
v 3.8 8.6 -2.9
v 3.8 9.6 -2.9
v 4.4 2 -2.9
v 4.4 2.4 -2.9
v 5.3 2 -2.9
v 5.3 2.4 -2.9
v 5.4 8.6 -2.9
v 5.4 9.6 -2.9
v 5.9 4.1 -3
v 5.9 4.2 -3
v 5.9 4.8 -3
v 5.9 5.1 -3
v 6 4.1 -3
v 6 4.2 -3
v 6 4.8 -3
v 6 5.1 -3
v 5.9 4 -3.1
v 5.9 4.1 -3.1
v 5.9 4.2 -3.1
v 5.9 4.3 -3.1
v 5.9 4.7 -3.1
v 5.9 4.8 -3.1
v 6 4 -3.1
v 6 4.1 -3.1
v 6 4.2 -3.1
v 6 4.3 -3.1
v 6 4.7 -3.1
v 6 4.8 -3.1
v 5.9 3.9 -3.2
v 5.9 4 -3.2
v 5.9 4.3 -3.2
v 5.9 4.4 -3.2
v 5.9 4.6 -3.2
v 5.9 4.7 -3.2
v 6 3.9 -3.2
v 6 4 -3.2
v 6 4.3 -3.2
v 6 4.4 -3.2
v 6 4.6 -3.2
v 6 4.7 -3.2
v 5.9 3.8 -3.3
v 5.9 3.9 -3.3
v 5.9 4.4 -3.3
v 5.9 4.6 -3.3
v 6 3.8 -3.3
v 6 3.9 -3.3
v 6 4.4 -3.3
v 6 4.6 -3.3
v 5.9 3.7 -3.4
v 5.9 3.8 -3.4
v 6 3.7 -3.4
v 6 3.8 -3.4
v 2.6 2 -3.7
v 2.6 2.4 -3.7
v 5.3 2 -3.7
v 5.3 2.4 -3.7
v 3.4 2.4 -4.1
v 3.4 3.5 -4.1
v 3.8 2.4 -4.1
v 3.8 3.5 -4.1
v 4.4 2 -4.5
v 4.4 2.4 -4.5
v 5.3 2 -4.5
v 5.3 2.4 -4.5
v 4.4 2 -2.5
v 4.4 2.4 -2.5
v 5.3 2 -2.5
v 5.3 2.4 -2.5
v 3.4 2.4 -2.9
v 3.4 3.5 -2.9
v 3.8 2.4 -2.9
v 3.8 3.5 -2.9
v 2.6 2 -3.3
v 2.6 2.4 -3.3
v 5.3 2 -3.3
v 5.3 2.4 -3.3
v 5.9 3.7 -3.5
v 5.9 3.8 -3.5
v 6 3.7 -3.5
v 6 3.8 -3.5
v 5.9 3.8 -3.6
v 5.9 3.9 -3.6
v 5.9 4.4 -3.6
v 5.9 4.6 -3.6
v 6 3.8 -3.6
v 6 3.9 -3.6
v 6 4.4 -3.6
v 6 4.6 -3.6
v 5.9 3.9 -3.7
v 5.9 4 -3.7
v 5.9 4.3 -3.7
v 5.9 4.4 -3.7
v 5.9 4.6 -3.7
v 5.9 4.7 -3.7
v 6 3.9 -3.7
v 6 4 -3.7
v 6 4.3 -3.7
v 6 4.4 -3.7
v 6 4.6 -3.7
v 6 4.7 -3.7
v 5.9 4 -3.8
v 5.9 4.1 -3.8
v 5.9 4.2 -3.8
v 5.9 4.3 -3.8
v 5.9 4.7 -3.8
v 5.9 4.8 -3.8
v 6 4 -3.8
v 6 4.1 -3.8
v 6 4.2 -3.8
v 6 4.3 -3.8
v 6 4.7 -3.8
v 6 4.8 -3.8
v 5.9 4.1 -3.9
v 5.9 4.2 -3.9
v 5.9 4.8 -3.9
v 5.9 5.1 -3.9
v 6 4.1 -3.9
v 6 4.2 -3.9
v 6 4.8 -3.9
v 6 5.1 -3.9
v 3.8 8.6 -4.1
v 3.8 9.6 -4.1
v 4.4 2 -4.1
v 4.4 2.4 -4.1
v 5.3 2 -4.1
v 5.3 2.4 -4.1
v 5.4 8.6 -4.1
v 5.4 9.6 -4.1
v 5.9 5.5 -4.2
v 5.9 6.5 -4.2
v 5.9 7.5 -4.2
v 6.9 5.5 -4.2
v 6.9 6.5 -4.2
v 7.4 6.5 -4.2
v 7.4 7.5 -4.2
v 3.4 2.4 -4.5
v 3.4 3.5 -4.5
v 3.8 2.4 -4.5
v 3.8 3.5 -4.5
v 0.9 3.5 -4.8
v 0.9 5.8 -4.8
v 1.3 3.5 -4.8
v 1.3 5.8 -4.8
v 2.6 2 -4.9
v 2.6 2.4 -4.9
v 5.3 2 -4.9
v 5.3 2.4 -4.9
v 1.3 3.5 -5.2
v 1.3 5.8 -5.2
v 2.4 4.1 -5.2
v 2.4 5.2 -5.2
v 2.9 5.8 -5.2
v 2.9 8.6 -5.2
v 4.7 7.3 -5.2
v 4.7 7.8 -5.2
v 5.2 4.1 -5.2
v 5.2 5.2 -5.2
v 5.2 7.3 -5.2
v 5.2 7.8 -5.2
v 5.9 3.5 -5.2
v 5.9 8.6 -5.2
v 4.7 7.3 -5.3
v 4.7 7.8 -5.3
v 5.2 7.3 -5.3
v 5.2 7.8 -5.3
v 2.4 4.1 -6
v 2.4 5.2 -6
v 5.2 4.1 -6
v 5.2 5.2 -6
v 2.6 2 -2.1
v 5.3 2 -2.1
v 4.4 2 -2.5
v 5.3 2 -2.5
v 4.4 2 -2.9
v 5.3 2 -2.9
v 2.6 2 -3.3
v 5.3 2 -3.3
v 2.6 2 -3.7
v 5.3 2 -3.7
v 4.4 2 -4.1
v 5.3 2 -4.1
v 4.4 2 -4.5
v 5.3 2 -4.5
v 2.6 2 -4.9
v 5.3 2 -4.9
v 1.3 3.5 -1.9
v 5.9 3.5 -1.9
v 0.9 3.5 -2.3
v 1.3 3.5 -2.3
v 3.4 3.5 -2.5
v 3.8 3.5 -2.5
v 3.4 3.5 -2.9
v 3.8 3.5 -2.9
v 3.4 3.5 -4.1
v 3.8 3.5 -4.1
v 3.4 3.5 -4.5
v 3.8 3.5 -4.5
v 0.9 3.5 -4.8
v 1.3 3.5 -4.8
v 1.3 3.5 -5.2
v 5.9 3.5 -5.2
v 5.9 3.7 -3.4
v 6 3.7 -3.4
v 5.9 3.7 -3.5
v 6 3.7 -3.5
v 5.9 3.8 -3.3
v 6 3.8 -3.3
v 5.9 3.8 -3.4
v 6 3.8 -3.4
v 5.9 3.8 -3.5
v 6 3.8 -3.5
v 5.9 3.8 -3.6
v 6 3.8 -3.6
v 5.9 3.9 -3.2
v 6 3.9 -3.2
v 5.9 3.9 -3.3
v 6 3.9 -3.3
v 5.9 3.9 -3.6
v 6 3.9 -3.6
v 5.9 3.9 -3.7
v 6 3.9 -3.7
v 5.9 4 -3.1
v 6 4 -3.1
v 5.9 4 -3.2
v 6 4 -3.2
v 5.9 4 -3.7
v 6 4 -3.7
v 5.9 4 -3.8
v 6 4 -3.8
v 2.4 4.1 -1.1
v 5.3 4.1 -1.1
v 2.4 4.1 -1.9
v 5.3 4.1 -1.9
v 5.9 4.1 -3
v 6 4.1 -3
v 5.9 4.1 -3.1
v 6 4.1 -3.1
v 5.9 4.1 -3.8
v 6 4.1 -3.8
v 5.9 4.1 -3.9
v 6 4.1 -3.9
v 2.4 4.1 -5.2
v 5.2 4.1 -5.2
v 2.4 4.1 -6
v 5.2 4.1 -6
v 5.9 4.6 -3.2
v 6 4.6 -3.2
v 5.9 4.6 -3.3
v 6 4.6 -3.3
v 5.9 4.6 -3.6
v 6 4.6 -3.6
v 5.9 4.6 -3.7
v 6 4.6 -3.7
v 5.9 4.7 -3.1
v 6 4.7 -3.1
v 5.9 4.7 -3.2
v 6 4.7 -3.2
v 5.9 4.7 -3.7
v 6 4.7 -3.7
v 5.9 4.7 -3.8
v 6 4.7 -3.8
v 5.9 4.8 -3
v 6 4.8 -3
v 5.9 4.8 -3.1
v 6 4.8 -3.1
v 5.9 4.8 -3.8
v 6 4.8 -3.8
v 5.9 4.8 -3.9
v 6 4.8 -3.9
v 5.9 5.5 -2.8
v 6.9 5.5 -2.8
v 5.9 5.5 -4.2
v 6.9 5.5 -4.2
v 6.9 6.5 -2.8
v 7.4 6.5 -2.8
v 6.9 6.5 -4.2
v 7.4 6.5 -4.2
v 4.7 7.3 -1.8
v 5.2 7.3 -1.8
v 4.7 7.3 -1.9
v 5.2 7.3 -1.9
v 4.7 7.3 -5.2
v 5.2 7.3 -5.2
v 4.7 7.3 -5.3
v 5.2 7.3 -5.3
v 2.6 2.4 -2.1
v 5.3 2.4 -2.1
v 3.4 2.4 -2.5
v 3.8 2.4 -2.5
v 4.4 2.4 -2.5
v 5.3 2.4 -2.5
v 3.4 2.4 -2.9
v 3.8 2.4 -2.9
v 4.4 2.4 -2.9
v 5.3 2.4 -2.9
v 2.6 2.4 -3.3
v 5.3 2.4 -3.3
v 2.6 2.4 -3.7
v 5.3 2.4 -3.7
v 3.4 2.4 -4.1
v 3.8 2.4 -4.1
v 4.4 2.4 -4.1
v 5.3 2.4 -4.1
v 3.4 2.4 -4.5
v 3.8 2.4 -4.5
v 4.4 2.4 -4.5
v 5.3 2.4 -4.5
v 2.6 2.4 -4.9
v 5.3 2.4 -4.9
v 5.9 4.2 -3
v 6 4.2 -3
v 5.9 4.2 -3.1
v 6 4.2 -3.1
v 5.9 4.2 -3.8
v 6 4.2 -3.8
v 5.9 4.2 -3.9
v 6 4.2 -3.9
v 5.9 4.3 -3.1
v 6 4.3 -3.1
v 5.9 4.3 -3.2
v 6 4.3 -3.2
v 5.9 4.3 -3.7
v 6 4.3 -3.7
v 5.9 4.3 -3.8
v 6 4.3 -3.8
v 5.9 4.4 -3.2
v 6 4.4 -3.2
v 5.9 4.4 -3.3
v 6 4.4 -3.3
v 5.9 4.4 -3.6
v 6 4.4 -3.6
v 5.9 4.4 -3.7
v 6 4.4 -3.7
v 5.9 5.1 -3
v 6 5.1 -3
v 5.9 5.1 -3.9
v 6 5.1 -3.9
v 2.4 5.2 -1.1
v 5.3 5.2 -1.1
v 2.4 5.2 -1.9
v 5.3 5.2 -1.9
v 2.4 5.2 -5.2
v 5.2 5.2 -5.2
v 2.4 5.2 -6
v 5.2 5.2 -6
v 1.3 5.8 -1.9
v 2.9 5.8 -1.9
v 0.9 5.8 -2.3
v 1.3 5.8 -2.3
v 0.9 5.8 -4.8
v 1.3 5.8 -4.8
v 1.3 5.8 -5.2
v 2.9 5.8 -5.2
v 5.9 7.5 -2.8
v 7.4 7.5 -2.8
v 5.9 7.5 -4.2
v 7.4 7.5 -4.2
v 4.7 7.8 -1.8
v 5.2 7.8 -1.8
v 4.7 7.8 -1.9
v 5.2 7.8 -1.9
v 4.7 7.8 -5.2
v 5.2 7.8 -5.2
v 4.7 7.8 -5.3
v 5.2 7.8 -5.3
v 2.9 8.6 -1.9
v 5.9 8.6 -1.9
v 3.8 8.6 -2.9
v 5.4 8.6 -2.9
v 3.8 8.6 -4.1
v 5.4 8.6 -4.1
v 2.9 8.6 -5.2
v 5.9 8.6 -5.2
v 3.8 9.6 -2.9
v 5.4 9.6 -2.9
v 3.8 9.6 -4.1
v 5.4 9.6 -4.1

# faces
f 3/5/1 2/5/1 1/5/1
f 4/5/1 2/5/1 3/5/1
f 9/5/1 6/5/1 5/5/1
f 10/5/1 6/5/1 9/5/1
f 11/5/1 8/5/1 7/5/1
f 12/5/1 8/5/1 11/5/1
f 17/5/1 14/5/1 13/5/1
f 18/5/1 14/5/1 17/5/1
f 19/5/1 16/5/1 15/5/1
f 20/5/1 16/5/1 19/5/1
f 25/1/1 22/1/1 21/1/1
f 26/1/1 22/1/1 25/1/1
f 27/1/1 24/1/1 23/1/1
f 28/1/1 24/1/1 27/1/1
f 31/5/1 30/5/1 29/5/1
f 32/5/1 30/5/1 31/5/1
f 37/1/1 34/1/1 33/1/1
f 38/1/1 34/1/1 37/1/1
f 39/1/1 36/1/1 35/1/1
f 40/1/1 36/1/1 39/1/1
f 43/2/1 42/2/1 41/2/1
f 44/2/1 42/2/1 43/2/1
f 49/6/1 46/6/1 45/6/1
f 50/6/1 46/6/1 49/6/1
f 51/6/1 48/6/1 47/6/1
f 52/6/1 48/6/1 51/6/1
f 53/1/2 54/1/2 57/1/2
f 57/1/2 54/1/2 58/1/2
f 55/1/2 56/1/2 59/1/2
f 59/1/2 56/1/2 60/1/2
f 61/1/2 62/1/2 65/1/2
f 65/1/2 62/1/2 66/1/2
f 63/1/2 64/1/2 67/1/2
f 67/1/2 64/1/2 68/1/2
f 69/5/2 70/5/2 71/5/2
f 71/5/2 70/5/2 72/5/2
f 73/6/2 74/6/2 77/6/2
f 77/6/2 74/6/2 78/6/2
f 75/6/2 76/6/2 79/6/2
f 79/6/2 76/6/2 80/6/2
f 81/1/2 82/1/2 89/1/2
f 89/1/2 82/1/2 90/1/2
f 83/1/2 84/1/2 91/1/2
f 91/1/2 84/1/2 92/1/2
f 85/1/2 86/1/2 93/1/2
f 93/1/2 86/1/2 94/1/2
f 87/1/2 88/1/2 95/1/2
f 95/1/2 88/1/2 96/1/2
f 97/5/2 98/5/2 99/5/2
f 99/5/2 98/5/2 100/5/2
f 101/2/2 102/2/2 103/2/2
f 103/2/2 102/2/2 104/2/2
f 105/5/2 106/5/2 107/5/2
f 107/5/2 106/5/2 108/5/2
f 105/5/2 107/5/2 109/5/2
f 109/5/2 107/5/2 110/5/2
f 108/5/2 106/5/2 111/5/2
f 111/5/2 106/5/2 112/5/2
f 105/5/2 109/5/2 113/5/2
f 113/5/2 109/5/2 114/5/2
f 112/5/2 106/5/2 115/5/2
f 115/5/2 106/5/2 116/5/2
f 105/5/2 113/5/2 117/5/2
f 117/5/2 113/5/2 118/5/2
f 116/5/2 106/5/2 119/5/2
f 119/5/2 106/5/2 120/5/2
f 105/5/2 117/5/2 121/5/2
f 121/5/2 117/5/2 122/5/2
f 120/5/2 106/5/2 123/5/2
f 123/5/2 106/5/2 124/5/2
f 105/5/2 121/5/2 125/5/2
f 124/5/2 106/5/2 128/5/2
f 125/5/2 126/5/2 129/5/2
f 127/5/2 128/5/2 132/5/2
f 129/5/2 130/5/2 133/5/2
f 131/5/2 132/5/2 136/5/2
f 133/5/2 134/5/2 137/5/2
f 129/5/2 133/5/2 137/5/2
f 137/5/2 134/5/2 138/5/2
f 135/5/2 136/5/2 139/5/2
f 136/5/2 132/5/2 140/5/2
f 139/5/2 136/5/2 140/5/2
f 125/5/2 129/5/2 141/5/2
f 129/5/2 137/5/2 141/5/2
f 141/5/2 137/5/2 142/5/2
f 140/5/2 132/5/2 143/5/2
f 132/5/2 128/5/2 144/5/2
f 143/5/2 132/5/2 144/5/2
f 105/5/2 125/5/2 145/5/2
f 125/5/2 141/5/2 145/5/2
f 145/5/2 141/5/2 146/5/2
f 144/5/2 128/5/2 147/5/2
f 128/5/2 106/5/2 148/5/2
f 147/5/2 128/5/2 148/5/2
f 105/5/2 145/5/2 149/5/2
f 148/5/2 106/5/2 150/5/2
f 105/5/2 149/5/2 151/5/2
f 149/5/2 150/5/2 151/5/2
f 150/5/2 106/5/2 152/5/2
f 151/5/2 150/5/2 152/5/2
f 105/5/2 151/5/2 153/5/2
f 152/5/2 106/5/2 154/5/2
f 105/5/2 153/5/2 155/5/2
f 154/5/2 106/5/2 156/5/2
f 105/5/2 155/5/2 157/5/2
f 155/5/2 156/5/2 157/5/2
f 156/5/2 106/5/2 158/5/2
f 157/5/2 156/5/2 158/5/2
f 159/3/2 160/3/2 162/3/2
f 162/3/2 160/3/2 163/3/2
f 161/3/2 162/3/2 166/3/2
f 163/3/2 164/3/2 166/3/2
f 162/3/2 163/3/2 166/3/2
f 166/3/2 164/3/2 167/3/2
f 165/3/2 166/3/2 170/3/2
f 167/3/2 168/3/2 170/3/2
f 166/3/2 167/3/2 170/3/2
f 170/3/2 168/3/2 171/3/2
f 169/3/2 170/3/2 174/3/2
f 171/3/2 172/3/2 174/3/2
f 170/3/2 171/3/2 174/3/2
f 174/3/2 172/3/2 175/3/2
f 173/3/2 174/3/2 177/3/2
f 175/3/2 176/3/2 177/3/2
f 174/3/2 175/3/2 177/3/2
f 177/3/2 176/3/2 178/3/2
f 178/3/2 176/3/2 179/3/2
f 179/3/2 176/3/2 180/3/2
f 178/3/2 179/3/2 181/3/2
f 181/3/2 179/3/2 182/3/2
f 182/3/2 179/3/2 183/3/2
f 183/3/2 179/3/2 184/3/2
f 182/3/2 183/3/2 185/3/2
f 185/3/2 183/3/2 186/3/2
f 186/3/2 183/3/2 187/3/2
f 187/3/2 183/3/2 188/3/2
f 186/3/2 187/3/2 190/3/2
f 190/3/2 187/3/2 191/3/2
f 189/3/2 190/3/2 194/3/2
f 191/3/2 192/3/2 194/3/2
f 190/3/2 191/3/2 194/3/2
f 194/3/2 192/3/2 195/3/2
f 194/3/2 195/3/2 198/3/2
f 195/3/2 196/3/2 198/3/2
f 193/3/2 194/3/2 198/3/2
f 198/3/2 196/3/2 199/3/2
f 198/4/2 199/4/2 201/4/2
f 199/4/2 200/4/2 201/4/2
f 197/4/2 198/4/2 201/4/2
f 201/4/2 200/4/2 202/4/2
f 203/2/2 204/2/2 205/2/2
f 205/2/2 204/2/2 206/2/2
f 207/1/2 208/1/2 209/1/2
f 209/1/2 208/1/2 210/1/2
f 213/5/3 212/5/3 211/5/3
f 214/5/3 212/5/3 213/5/3
f 217/6/3 216/6/3 215/6/3
f 218/6/3 216/6/3 217/6/3
f 221/5/3 220/5/3 219/5/3
f 222/5/3 220/5/3 221/5/3
f 223/5/3 220/5/3 222/5/3
f 225/5/3 224/5/3 223/5/3
f 226/5/3 224/5/3 225/5/3
f 227/5/3 225/5/3 223/5/3
f 228/5/3 224/5/3 226/5/3
f 229/5/3 221/5/3 219/5/3
f 230/5/3 228/5/3 227/5/3
f 230/5/3 223/5/3 222/5/3
f 230/5/3 227/5/3 223/5/3
f 231/5/3 229/5/3 219/5/3
f 231/5/3 230/5/3 229/5/3
f 232/5/3 228/5/3 230/5/3
f 232/5/3 230/5/3 231/5/3
f 232/5/3 224/5/3 228/5/3
f 235/1/3 234/1/3 233/1/3
f 236/1/3 234/1/3 235/1/3
f 239/5/3 238/5/3 237/5/3
f 240/5/3 238/5/3 239/5/3
f 243/1/3 242/1/3 241/1/3
f 244/1/3 242/1/3 243/1/3
f 248/2/3 246/2/3 245/2/3
f 249/1/3 247/1/3 246/1/3
f 249/2/3 246/2/3 248/2/3
f 250/1/3 247/1/3 249/1/3
f 251/1/3 247/1/3 250/1/3
f 256/1/3 255/1/3 254/1/3
f 257/1/3 255/1/3 256/1/3
f 258/2/3 253/2/3 252/2/3
f 259/2/3 253/2/3 258/2/3
f 264/3/3 261/3/3 260/3/3
f 265/3/3 261/3/3 264/3/3
f 266/4/3 263/4/3 262/4/3
f 267/4/3 263/4/3 266/4/3
f 274/3/3 269/3/3 268/3/3
f 275/3/3 269/3/3 274/3/3
f 276/3/3 271/3/3 270/3/3
f 277/3/3 271/3/3 276/3/3
f 278/3/3 273/3/3 272/3/3
f 279/3/3 273/3/3 278/3/3
f 286/3/3 281/3/3 280/3/3
f 287/3/3 281/3/3 286/3/3
f 288/3/3 283/3/3 282/3/3
f 289/3/3 283/3/3 288/3/3
f 290/3/3 285/3/3 284/3/3
f 291/3/3 285/3/3 290/3/3
f 296/3/3 293/3/3 292/3/3
f 297/3/3 293/3/3 296/3/3
f 298/3/3 295/3/3 294/3/3
f 299/3/3 295/3/3 298/3/3
f 302/3/3 301/3/3 300/3/3
f 303/3/3 301/3/3 302/3/3
f 306/1/3 305/1/3 304/1/3
f 307/1/3 305/1/3 306/1/3
f 310/1/3 309/1/3 308/1/3
f 311/1/3 309/1/3 310/1/3
f 314/1/3 313/1/3 312/1/3
f 315/1/3 313/1/3 314/1/3
f 316/1/4 317/1/4 318/1/4
f 318/1/4 317/1/4 319/1/4
f 320/1/4 321/1/4 322/1/4
f 322/1/4 321/1/4 323/1/4
f 324/1/4 325/1/4 326/1/4
f 326/1/4 325/1/4 327/1/4
f 328/3/4 329/3/4 330/3/4
f 330/3/4 329/3/4 331/3/4
f 332/3/4 333/3/4 336/3/4
f 336/3/4 333/3/4 337/3/4
f 334/3/4 335/3/4 338/3/4
f 338/3/4 335/3/4 339/3/4
f 340/3/4 341/3/4 346/3/4
f 346/3/4 341/3/4 347/3/4
f 342/3/4 343/3/4 348/3/4
f 348/3/4 343/3/4 349/3/4
f 344/3/4 345/3/4 350/3/4
f 350/3/4 345/3/4 351/3/4
f 352/3/4 353/3/4 358/3/4
f 358/3/4 353/3/4 359/3/4
f 354/3/4 355/3/4 360/3/4
f 360/3/4 355/3/4 361/3/4
f 356/3/4 357/3/4 362/3/4
f 362/3/4 357/3/4 363/3/4
f 364/3/4 365/3/4 368/3/4
f 368/3/4 365/3/4 369/3/4
f 366/4/4 367/4/4 370/4/4
f 370/4/4 367/4/4 371/4/4
f 374/1/4 375/1/4 376/1/4
f 376/1/4 375/1/4 377/1/4
f 372/2/4 373/2/4 378/2/4
f 378/2/4 373/2/4 379/2/4
f 380/2/4 381/2/4 383/2/4
f 381/1/4 382/1/4 384/1/4
f 383/2/4 381/2/4 384/2/4
f 384/1/4 382/1/4 385/1/4
f 385/1/4 382/1/4 386/1/4
f 387/1/4 388/1/4 389/1/4
f 389/1/4 388/1/4 390/1/4
f 391/5/4 392/5/4 393/5/4
f 393/5/4 392/5/4 394/5/4
f 395/1/4 396/1/4 397/1/4
f 397/1/4 396/1/4 398/1/4
f 399/5/4 400/5/4 401/5/4
f 401/5/4 400/5/4 402/5/4
f 402/5/4 400/5/4 403/5/4
f 403/5/4 404/5/4 405/5/4
f 405/5/4 404/5/4 406/5/4
f 399/5/4 401/5/4 407/5/4
f 402/5/4 403/5/4 408/5/4
f 403/5/4 405/5/4 408/5/4
f 408/5/4 405/5/4 409/5/4
f 406/5/4 404/5/4 410/5/4
f 408/5/4 409/5/4 411/5/4
f 409/5/4 410/5/4 411/5/4
f 399/5/4 407/5/4 411/5/4
f 407/5/4 408/5/4 411/5/4
f 410/5/4 404/5/4 412/5/4
f 411/5/4 410/5/4 412/5/4
f 413/6/4 414/6/4 415/6/4
f 415/6/4 414/6/4 416/6/4
f 417/5/4 418/5/4 419/5/4
f 419/5/4 418/5/4 420/5/4
f 423/1/5 422/1/5 421/1/5
f 424/1/5 422/1/5 423/1/5
f 425/1/5 423/1/5 421/1/5
f 427/1/5 425/1/5 421/1/5
f 427/1/5 426/1/5 425/1/5
f 428/1/5 426/1/5 427/1/5
f 431/1/5 430/1/5 429/1/5
f 432/1/5 430/1/5 431/1/5
f 433/1/5 431/1/5 429/1/5
f 435/1/5 433/1/5 429/1/5
f 435/1/5 434/1/5 433/1/5
f 436/1/5 434/1/5 435/1/5
f 440/5/5 438/5/5 437/5/5
f 441/5/5 438/5/5 440/5/5
f 441/5/5 440/5/5 439/5/5
f 442/5/5 438/5/5 441/5/5
f 443/5/5 441/5/5 439/5/5
f 444/5/5 438/5/5 442/5/5
f 445/5/5 443/5/5 439/5/5
f 445/5/5 444/5/5 443/5/5
f 446/5/5 438/5/5 444/5/5
f 446/5/5 444/5/5 445/5/5
f 447/5/5 445/5/5 439/5/5
f 448/5/5 438/5/5 446/5/5
f 449/5/5 447/5/5 439/5/5
f 449/5/5 448/5/5 447/5/5
f 450/5/5 448/5/5 449/5/5
f 451/5/5 448/5/5 450/5/5
f 452/5/5 438/5/5 448/5/5
f 452/5/5 448/5/5 451/5/5
f 455/3/5 454/3/5 453/3/5
f 456/3/5 454/3/5 455/3/5
f 459/3/5 458/3/5 457/3/5
f 460/3/5 458/3/5 459/3/5
f 463/3/5 462/3/5 461/3/5
f 464/3/5 462/3/5 463/3/5
f 467/3/5 466/3/5 465/3/5
f 468/3/5 466/3/5 467/3/5
f 471/3/5 470/3/5 469/3/5
f 472/3/5 470/3/5 471/3/5
f 475/3/5 474/3/5 473/3/5
f 476/3/5 474/3/5 475/3/5
f 479/3/5 478/3/5 477/3/5
f 480/3/5 478/3/5 479/3/5
f 483/5/5 482/5/5 481/5/5
f 484/5/5 482/5/5 483/5/5
f 487/3/5 486/3/5 485/3/5
f 488/3/5 486/3/5 487/3/5
f 491/3/5 490/3/5 489/3/5
f 492/3/5 490/3/5 491/3/5
f 495/5/5 494/5/5 493/5/5
f 496/5/5 494/5/5 495/5/5
f 499/3/5 498/3/5 497/3/5
f 500/3/5 498/3/5 499/3/5
f 503/3/5 502/3/5 501/3/5
f 504/3/5 502/3/5 503/3/5
f 507/3/5 506/3/5 505/3/5
f 508/3/5 506/3/5 507/3/5
f 511/3/5 510/3/5 509/3/5
f 512/3/5 510/3/5 511/3/5
f 515/4/5 514/4/5 513/4/5
f 516/4/5 514/4/5 515/4/5
f 519/4/5 518/4/5 517/4/5
f 520/4/5 518/4/5 519/4/5
f 523/2/5 522/2/5 521/2/5
f 524/2/5 522/2/5 523/2/5
f 527/1/5 526/1/5 525/1/5
f 528/1/5 526/1/5 527/1/5
f 531/6/5 530/6/5 529/6/5
f 532/6/5 530/6/5 531/6/5
f 535/6/5 534/6/5 533/6/5
f 536/6/5 534/6/5 535/6/5
f 537/1/6 538/1/6 539/1/6
f 539/1/6 538/1/6 540/1/6
f 540/1/6 538/1/6 541/1/6
f 541/1/6 538/1/6 542/1/6
f 537/1/6 539/1/6 543/1/6
f 540/1/6 541/1/6 544/1/6
f 544/1/6 541/1/6 545/1/6
f 537/1/6 543/1/6 547/1/6
f 545/1/6 546/1/6 547/1/6
f 544/1/6 545/1/6 547/1/6
f 543/1/6 544/1/6 547/1/6
f 547/1/6 546/1/6 548/1/6
f 549/1/6 550/1/6 551/1/6
f 551/1/6 550/1/6 552/1/6
f 552/1/6 550/1/6 553/1/6
f 553/1/6 550/1/6 554/1/6
f 549/1/6 551/1/6 555/1/6
f 552/1/6 553/1/6 556/1/6
f 556/1/6 553/1/6 557/1/6
f 549/1/6 555/1/6 559/1/6
f 557/1/6 558/1/6 559/1/6
f 556/1/6 557/1/6 559/1/6
f 555/1/6 556/1/6 559/1/6
f 559/1/6 558/1/6 560/1/6
f 561/3/6 562/3/6 563/3/6
f 563/3/6 562/3/6 564/3/6
f 565/3/6 566/3/6 567/3/6
f 567/3/6 566/3/6 568/3/6
f 569/3/6 570/3/6 571/3/6
f 571/3/6 570/3/6 572/3/6
f 573/3/6 574/3/6 575/3/6
f 575/3/6 574/3/6 576/3/6
f 577/3/6 578/3/6 579/3/6
f 579/3/6 578/3/6 580/3/6
f 581/3/6 582/3/6 583/3/6
f 583/3/6 582/3/6 584/3/6
f 585/4/6 586/4/6 587/4/6
f 587/4/6 586/4/6 588/4/6
f 589/5/6 590/5/6 591/5/6
f 591/5/6 590/5/6 592/5/6
f 593/5/6 594/5/6 595/5/6
f 595/5/6 594/5/6 596/5/6
f 597/5/6 598/5/6 600/5/6
f 599/5/6 600/5/6 601/5/6
f 600/5/6 598/5/6 602/5/6
f 601/5/6 600/5/6 602/5/6
f 602/5/6 598/5/6 603/5/6
f 603/5/6 598/5/6 604/5/6
f 605/1/6 606/1/6 607/1/6
f 607/1/6 606/1/6 608/1/6
f 609/6/6 610/6/6 611/6/6
f 611/6/6 610/6/6 612/6/6
f 613/6/6 614/6/6 615/6/6
f 615/6/6 614/6/6 616/6/6
f 617/5/6 618/5/6 619/5/6
f 619/5/6 618/5/6 620/5/6
f 617/5/6 619/5/6 621/5/6
f 620/5/6 618/5/6 622/5/6
f 617/5/6 621/5/6 623/5/6
f 621/5/6 622/5/6 623/5/6
f 622/5/6 618/5/6 624/5/6
f 623/5/6 622/5/6 624/5/6
f 625/2/6 626/2/6 627/2/6
f 627/2/6 626/2/6 628/2/6
