# MagicaVoxel @ Ephtracy

# group
o 

# material
mtllib Truck.mtl
usemtl palette

# normals
vn -1 0 0
vn 1 0 0
vn 0 0 1
vn 0 0 -1
vn 0 -1 0
vn 0 1 0

# texcoords
vt 0.0214844 0.5
vt 0.841797 0.5
vt 0.958984 0.5
vt 0.982422 0.5
vt 0.994141 0.5

# verts
v 0.8 3.3 -1.6
v 0.8 3.3 -2.2
v 0.8 3.5 -1.5
v 0.8 3.5 -1.6
v 0.8 3.5 -2.2
v 0.8 3.5 -2.3
v 0.8 4.3 -1.5
v 0.8 4.3 -2.3
v 1.1 3.2 -1.6
v 1.1 3.2 -1.7
v 1.1 3.2 -2.1
v 1.1 3.2 -2.2
v 1.1 3.3 -1.6
v 1.1 3.3 -1.7
v 1.1 3.3 -2.1
v 1.1 3.3 -2.2
v 2.1 3.2 -1.6
v 2.1 3.2 -1.7
v 2.1 3.2 -2.1
v 2.1 3.2 -2.2
v 2.1 3.3 -1.6
v 2.1 3.3 -1.7
v 2.1 3.3 -2.1
v 2.1 3.3 -2.2
v 2.8 3.3 -1.6
v 2.8 3.3 -1.7
v 2.8 3.3 -2.1
v 2.8 3.3 -2.2
v 2.8 3.5 -1.5
v 2.8 3.5 -1.6
v 2.8 3.5 -1.7
v 2.8 3.5 -1.8
v 2.8 3.5 -2
v 2.8 3.5 -2.1
v 2.8 3.5 -2.2
v 2.8 3.5 -2.3
v 2.8 4 -1.5
v 2.8 4 -1.6
v 2.8 4 -1.8
v 2.8 4 -2
v 2.8 4 -2.2
v 2.8 4 -2.3
v 2.8 4.1 -1.6
v 2.8 4.1 -1.7
v 2.8 4.1 -2.1
v 2.8 4.1 -2.2
v 2.8 4.2 -1.7
v 2.8 4.2 -2.1
v 2.9 3.2 -1.6
v 2.9 3.2 -1.7
v 2.9 3.2 -2.1
v 2.9 3.2 -2.2
v 2.9 3.3 -1.6
v 2.9 3.3 -1.7
v 2.9 3.3 -2.1
v 2.9 3.3 -2.2
v 1.4 3.2 -1.6
v 1.4 3.2 -1.7
v 1.4 3.2 -2.1
v 1.4 3.2 -2.2
v 1.4 3.3 -1.6
v 1.4 3.3 -1.7
v 1.4 3.3 -2.1
v 1.4 3.3 -2.2
v 2.4 3.2 -1.6
v 2.4 3.2 -1.7
v 2.4 3.2 -2.1
v 2.4 3.2 -2.2
v 2.4 3.3 -1.6
v 2.4 3.3 -1.7
v 2.4 3.3 -2.1
v 2.4 3.3 -2.2
v 2.7 3.3 -1.6
v 2.7 3.3 -1.7
v 2.7 3.3 -2.1
v 2.7 3.3 -2.2
v 2.7 3.5 -1.5
v 2.7 3.5 -1.6
v 2.7 3.5 -1.7
v 2.7 3.5 -1.8
v 2.7 3.5 -2
v 2.7 3.5 -2.1
v 2.7 3.5 -2.2
v 2.7 3.5 -2.3
v 2.7 4 -1.8
v 2.7 4 -2
v 2.7 4.3 -1.5
v 2.7 4.3 -2.3
v 3 4.1 -1.7
v 3 4.1 -2.1
v 3 4.2 -1.7
v 3 4.2 -2.1
v 3.1 4 -1.6
v 3.1 4 -2.2
v 3.1 4.1 -1.6
v 3.1 4.1 -2.2
v 3.2 3.2 -1.6
v 3.2 3.2 -1.7
v 3.2 3.2 -2.1
v 3.2 3.2 -2.2
v 3.2 3.3 -1.6
v 3.2 3.3 -1.7
v 3.2 3.3 -2.1
v 3.2 3.3 -2.2
v 3.3 3.3 -1.6
v 3.3 3.3 -2.2
v 3.3 3.5 -1.5
v 3.3 3.5 -1.6
v 3.3 3.5 -1.7
v 3.3 3.5 -2.1
v 3.3 3.5 -2.2
v 3.3 3.5 -2.3
v 3.3 3.6 -1.6
v 3.3 3.6 -1.7
v 3.3 3.6 -2.1
v 3.3 3.6 -2.2
v 3.3 3.7 -1.5
v 3.3 3.7 -2.3
v 3.3 3.9 -1.5
v 3.3 3.9 -2.3
v 3.3 4 -1.5
v 3.3 4 -2.3
v 0.8 3.5 -1.5
v 0.8 4.3 -1.5
v 2.7 3.5 -1.5
v 2.7 4.3 -1.5
v 2.8 3.5 -1.5
v 2.8 4 -1.5
v 3.1 3.7 -1.5
v 3.1 3.9 -1.5
v 3.3 3.5 -1.5
v 3.3 3.7 -1.5
v 3.3 3.9 -1.5
v 3.3 4 -1.5
v 0.8 3.3 -1.6
v 0.8 3.5 -1.6
v 1.1 3.2 -1.6
v 1.1 3.3 -1.6
v 1.1 3.5 -1.6
v 1.2 3.3 -1.6
v 1.2 3.4 -1.6
v 1.3 3.3 -1.6
v 1.3 3.4 -1.6
v 1.4 3.2 -1.6
v 1.4 3.3 -1.6
v 1.4 3.5 -1.6
v 2.1 3.2 -1.6
v 2.1 3.3 -1.6
v 2.1 3.5 -1.6
v 2.2 3.3 -1.6
v 2.2 3.4 -1.6
v 2.3 3.3 -1.6
v 2.3 3.4 -1.6
v 2.4 3.2 -1.6
v 2.4 3.3 -1.6
v 2.4 3.5 -1.6
v 2.7 3.3 -1.6
v 2.7 3.5 -1.6
v 2.8 3.3 -1.6
v 2.8 3.5 -1.6
v 2.8 4 -1.6
v 2.8 4.1 -1.6
v 2.9 3.2 -1.6
v 2.9 3.3 -1.6
v 2.9 3.5 -1.6
v 3 3.3 -1.6
v 3 3.4 -1.6
v 3.1 3.3 -1.6
v 3.1 3.4 -1.6
v 3.1 4 -1.6
v 3.1 4.1 -1.6
v 3.2 3.2 -1.6
v 3.2 3.3 -1.6
v 3.2 3.5 -1.6
v 3.3 3.3 -1.6
v 3.3 3.5 -1.6
v 2.7 3.3 -1.7
v 2.7 3.5 -1.7
v 2.8 3.3 -1.7
v 2.8 3.5 -1.7
v 2.8 4.1 -1.7
v 2.8 4.2 -1.7
v 3 4.1 -1.7
v 3 4.2 -1.7
v 2.7 3.5 -1.8
v 2.7 4 -1.8
v 2.8 3.5 -1.8
v 2.8 4 -1.8
v 1.1 3.2 -2.1
v 1.1 3.3 -2.1
v 1.4 3.2 -2.1
v 1.4 3.3 -2.1
v 2.1 3.2 -2.1
v 2.1 3.3 -2.1
v 2.4 3.2 -2.1
v 2.4 3.3 -2.1
v 2.9 3.2 -2.1
v 2.9 3.3 -2.1
v 3.2 3.2 -2.1
v 3.2 3.3 -2.1
v 1.1 3.2 -1.7
v 1.1 3.3 -1.7
v 1.4 3.2 -1.7
v 1.4 3.3 -1.7
v 2.1 3.2 -1.7
v 2.1 3.3 -1.7
v 2.4 3.2 -1.7
v 2.4 3.3 -1.7
v 2.9 3.2 -1.7
v 2.9 3.3 -1.7
v 3.2 3.2 -1.7
v 3.2 3.3 -1.7
v 2.7 3.5 -2
v 2.7 4 -2
v 2.8 3.5 -2
v 2.8 4 -2
v 2.7 3.3 -2.1
v 2.7 3.5 -2.1
v 2.8 3.3 -2.1
v 2.8 3.5 -2.1
v 2.8 4.1 -2.1
v 2.8 4.2 -2.1
v 3 4.1 -2.1
v 3 4.2 -2.1
v 0.8 3.3 -2.2
v 0.8 3.5 -2.2
v 1.1 3.2 -2.2
v 1.1 3.3 -2.2
v 1.1 3.5 -2.2
v 1.2 3.3 -2.2
v 1.2 3.4 -2.2
v 1.3 3.3 -2.2
v 1.3 3.4 -2.2
v 1.4 3.2 -2.2
v 1.4 3.3 -2.2
v 1.4 3.5 -2.2
v 2.1 3.2 -2.2
v 2.1 3.3 -2.2
v 2.1 3.5 -2.2
v 2.2 3.3 -2.2
v 2.2 3.4 -2.2
v 2.3 3.3 -2.2
v 2.3 3.4 -2.2
v 2.4 3.2 -2.2
v 2.4 3.3 -2.2
v 2.4 3.5 -2.2
v 2.7 3.3 -2.2
v 2.7 3.5 -2.2
v 2.8 3.3 -2.2
v 2.8 3.5 -2.2
v 2.8 4 -2.2
v 2.8 4.1 -2.2
v 2.9 3.2 -2.2
v 2.9 3.3 -2.2
v 2.9 3.5 -2.2
v 3 3.3 -2.2
v 3 3.4 -2.2
v 3.1 3.3 -2.2
v 3.1 3.4 -2.2
v 3.1 4 -2.2
v 3.1 4.1 -2.2
v 3.2 3.2 -2.2
v 3.2 3.3 -2.2
v 3.2 3.5 -2.2
v 3.3 3.3 -2.2
v 3.3 3.5 -2.2
v 0.8 3.5 -2.3
v 0.8 4.3 -2.3
v 2.7 3.5 -2.3
v 2.7 4.3 -2.3
v 2.8 3.5 -2.3
v 2.8 4 -2.3
v 3.1 3.7 -2.3
v 3.1 3.9 -2.3
v 3.3 3.5 -2.3
v 3.3 3.7 -2.3
v 3.3 3.9 -2.3
v 3.3 4 -2.3
v 1.1 3.2 -1.6
v 1.4 3.2 -1.6
v 2.1 3.2 -1.6
v 2.4 3.2 -1.6
v 2.9 3.2 -1.6
v 3.2 3.2 -1.6
v 1.1 3.2 -1.7
v 1.4 3.2 -1.7
v 2.1 3.2 -1.7
v 2.4 3.2 -1.7
v 2.9 3.2 -1.7
v 3.2 3.2 -1.7
v 1.1 3.2 -2.1
v 1.4 3.2 -2.1
v 2.1 3.2 -2.1
v 2.4 3.2 -2.1
v 2.9 3.2 -2.1
v 3.2 3.2 -2.1
v 1.1 3.2 -2.2
v 1.4 3.2 -2.2
v 2.1 3.2 -2.2
v 2.4 3.2 -2.2
v 2.9 3.2 -2.2
v 3.2 3.2 -2.2
v 0.8 3.3 -1.6
v 1.1 3.3 -1.6
v 1.4 3.3 -1.6
v 2.1 3.3 -1.6
v 2.4 3.3 -1.6
v 2.7 3.3 -1.6
v 2.8 3.3 -1.6
v 2.9 3.3 -1.6
v 3.2 3.3 -1.6
v 3.3 3.3 -1.6
v 0.9 3.3 -1.7
v 1.1 3.3 -1.7
v 1.4 3.3 -1.7
v 2.1 3.3 -1.7
v 2.4 3.3 -1.7
v 2.7 3.3 -1.7
v 2.8 3.3 -1.7
v 2.9 3.3 -1.7
v 3.2 3.3 -1.7
v 0.9 3.3 -2.1
v 1.1 3.3 -2.1
v 1.4 3.3 -2.1
v 2.1 3.3 -2.1
v 2.4 3.3 -2.1
v 2.7 3.3 -2.1
v 2.8 3.3 -2.1
v 2.9 3.3 -2.1
v 3.2 3.3 -2.1
v 0.8 3.3 -2.2
v 1.1 3.3 -2.2
v 1.4 3.3 -2.2
v 2.1 3.3 -2.2
v 2.4 3.3 -2.2
v 2.7 3.3 -2.2
v 2.8 3.3 -2.2
v 2.9 3.3 -2.2
v 3.2 3.3 -2.2
v 3.3 3.3 -2.2
v 0.8 3.5 -1.5
v 2.7 3.5 -1.5
v 2.8 3.5 -1.5
v 3.3 3.5 -1.5
v 0.8 3.5 -1.6
v 1.1 3.5 -1.6
v 1.4 3.5 -1.6
v 2.1 3.5 -1.6
v 2.4 3.5 -1.6
v 2.7 3.5 -1.6
v 2.8 3.5 -1.6
v 2.9 3.5 -1.6
v 3.2 3.5 -1.6
v 3.3 3.5 -1.6
v 0.8 3.5 -2.2
v 1.1 3.5 -2.2
v 1.4 3.5 -2.2
v 2.1 3.5 -2.2
v 2.4 3.5 -2.2
v 2.7 3.5 -2.2
v 2.8 3.5 -2.2
v 2.9 3.5 -2.2
v 3.2 3.5 -2.2
v 3.3 3.5 -2.2
v 0.8 3.5 -2.3
v 2.7 3.5 -2.3
v 2.8 3.5 -2.3
v 3.3 3.5 -2.3
v 2.7 3.5 -1.7
v 2.8 3.5 -1.7
v 2.7 3.5 -1.8
v 2.8 3.5 -1.8
v 2.7 3.5 -2
v 2.8 3.5 -2
v 2.7 3.5 -2.1
v 2.8 3.5 -2.1
v 2.8 4 -1.5
v 3.3 4 -1.5
v 2.8 4 -1.6
v 3.1 4 -1.6
v 2.7 4 -1.8
v 2.8 4 -1.8
v 2.7 4 -2
v 2.8 4 -2
v 2.8 4 -2.2
v 3.1 4 -2.2
v 2.8 4 -2.3
v 3.3 4 -2.3
v 2.8 4.1 -1.6
v 3.1 4.1 -1.6
v 2.8 4.1 -1.7
v 3 4.1 -1.7
v 2.8 4.1 -2.1
v 3 4.1 -2.1
v 2.8 4.1 -2.2
v 3.1 4.1 -2.2
v 2.8 4.2 -1.7
v 3 4.2 -1.7
v 2.8 4.2 -2.1
v 3 4.2 -2.1
v 0.8 4.3 -1.5
v 2.7 4.3 -1.5
v 0.8 4.3 -2.3
v 2.7 4.3 -2.3

# faces
f 4/4/1 2/4/1 1/4/1
f 5/4/1 2/4/1 4/4/1
f 7/3/1 4/3/1 3/3/1
f 7/3/1 6/3/1 5/3/1
f 7/3/1 5/3/1 4/3/1
f 8/3/1 6/3/1 7/3/1
f 13/5/1 10/5/1 9/5/1
f 14/5/1 10/5/1 13/5/1
f 15/5/1 12/5/1 11/5/1
f 16/5/1 12/5/1 15/5/1
f 21/5/1 18/5/1 17/5/1
f 22/5/1 18/5/1 21/5/1
f 23/5/1 20/5/1 19/5/1
f 24/5/1 20/5/1 23/5/1
f 30/2/1 26/2/1 25/2/1
f 31/2/1 26/2/1 30/2/1
f 34/2/1 28/2/1 27/2/1
f 35/2/1 28/2/1 34/2/1
f 37/2/1 32/2/1 31/2/1
f 37/2/1 30/2/1 29/2/1
f 37/2/1 31/2/1 30/2/1
f 38/2/1 32/2/1 37/2/1
f 39/2/1 32/2/1 38/2/1
f 40/2/1 36/2/1 35/2/1
f 40/2/1 35/2/1 34/2/1
f 40/2/1 34/2/1 33/2/1
f 41/2/1 36/2/1 40/2/1
f 42/2/1 36/2/1 41/2/1
f 43/3/1 39/3/1 38/3/1
f 43/3/1 41/3/1 40/3/1
f 43/3/1 40/3/1 39/3/1
f 44/3/1 41/3/1 43/3/1
f 45/3/1 41/3/1 44/3/1
f 46/3/1 41/3/1 45/3/1
f 47/3/1 45/3/1 44/3/1
f 48/3/1 45/3/1 47/3/1
f 53/5/1 50/5/1 49/5/1
f 54/5/1 50/5/1 53/5/1
f 55/5/1 52/5/1 51/5/1
f 56/5/1 52/5/1 55/5/1
f 57/5/2 58/5/2 61/5/2
f 61/5/2 58/5/2 62/5/2
f 59/5/2 60/5/2 63/5/2
f 63/5/2 60/5/2 64/5/2
f 65/5/2 66/5/2 69/5/2
f 69/5/2 66/5/2 70/5/2
f 67/5/2 68/5/2 71/5/2
f 71/5/2 68/5/2 72/5/2
f 73/4/2 74/4/2 78/4/2
f 78/4/2 74/4/2 79/4/2
f 75/4/2 76/4/2 82/4/2
f 82/4/2 76/4/2 83/4/2
f 79/3/2 80/3/2 85/3/2
f 77/3/2 78/3/2 85/3/2
f 78/3/2 79/3/2 85/3/2
f 83/3/2 84/3/2 86/3/2
f 82/3/2 83/3/2 86/3/2
f 81/3/2 82/3/2 86/3/2
f 77/3/2 85/3/2 87/3/2
f 85/3/2 86/3/2 87/3/2
f 86/3/2 84/3/2 88/3/2
f 87/3/2 86/3/2 88/3/2
f 89/3/2 90/3/2 91/3/2
f 91/3/2 90/3/2 92/3/2
f 93/3/2 94/3/2 95/3/2
f 95/3/2 94/3/2 96/3/2
f 97/5/2 98/5/2 101/5/2
f 101/5/2 98/5/2 102/5/2
f 99/5/2 100/5/2 103/5/2
f 103/5/2 100/5/2 104/5/2
f 105/4/2 106/4/2 108/4/2
f 108/4/2 106/4/2 109/4/2
f 109/4/2 106/4/2 110/4/2
f 110/4/2 106/4/2 111/4/2
f 107/2/2 108/2/2 113/2/2
f 108/1/2 109/1/2 113/1/2
f 109/2/2 110/2/2 114/2/2
f 113/1/2 109/1/2 114/1/2
f 110/1/2 111/1/2 115/1/2
f 114/2/2 110/2/2 115/2/2
f 111/2/2 112/2/2 116/2/2
f 115/1/2 111/1/2 116/1/2
f 114/2/2 115/2/2 117/2/2
f 113/2/2 114/2/2 117/2/2
f 115/2/2 116/2/2 117/2/2
f 107/2/2 113/2/2 117/2/2
f 116/2/2 112/2/2 118/2/2
f 117/2/2 116/2/2 118/2/2
f 117/5/2 118/5/2 119/5/2
f 119/5/2 118/5/2 120/5/2
f 119/2/2 120/2/2 121/2/2
f 121/2/2 120/2/2 122/2/2
f 125/3/3 124/3/3 123/3/3
f 126/3/3 124/3/3 125/3/3
f 129/2/3 128/2/3 127/2/3
f 130/2/3 128/2/3 129/2/3
f 131/2/3 129/2/3 127/2/3
f 132/5/3 130/5/3 129/5/3
f 132/2/3 129/2/3 131/2/3
f 133/2/3 128/2/3 130/2/3
f 133/5/3 130/5/3 132/5/3
f 134/2/3 128/2/3 133/2/3
f 138/4/3 136/4/3 135/4/3
f 139/4/3 136/4/3 138/4/3
f 140/5/3 138/5/3 137/5/3
f 140/5/3 139/5/3 138/5/3
f 141/5/3 139/5/3 140/5/3
f 142/5/3 140/5/3 137/5/3
f 142/3/3 141/3/3 140/3/3
f 143/5/3 139/5/3 141/5/3
f 143/3/3 141/3/3 142/3/3
f 144/5/3 142/5/3 137/5/3
f 144/5/3 143/5/3 142/5/3
f 145/5/3 143/5/3 144/5/3
f 146/5/3 139/5/3 143/5/3
f 146/5/3 143/5/3 145/5/3
f 148/4/3 146/4/3 145/4/3
f 149/4/3 146/4/3 148/4/3
f 150/5/3 148/5/3 147/5/3
f 150/5/3 149/5/3 148/5/3
f 151/5/3 149/5/3 150/5/3
f 152/5/3 150/5/3 147/5/3
f 152/3/3 151/3/3 150/3/3
f 153/5/3 149/5/3 151/5/3
f 153/3/3 151/3/3 152/3/3
f 154/5/3 152/5/3 147/5/3
f 154/5/3 153/5/3 152/5/3
f 155/5/3 153/5/3 154/5/3
f 156/5/3 149/5/3 153/5/3
f 156/5/3 153/5/3 155/5/3
f 157/4/3 156/4/3 155/4/3
f 158/4/3 156/4/3 157/4/3
f 164/2/3 160/2/3 159/2/3
f 165/2/3 160/2/3 164/2/3
f 166/5/3 164/5/3 163/5/3
f 166/5/3 165/5/3 164/5/3
f 167/5/3 165/5/3 166/5/3
f 168/5/3 166/5/3 163/5/3
f 168/3/3 167/3/3 166/3/3
f 169/5/3 165/5/3 167/5/3
f 169/3/3 167/3/3 168/3/3
f 170/3/3 162/3/3 161/3/3
f 171/3/3 162/3/3 170/3/3
f 172/5/3 169/5/3 168/5/3
f 172/5/3 168/5/3 163/5/3
f 173/5/3 169/5/3 172/5/3
f 174/5/3 165/5/3 169/5/3
f 174/5/3 169/5/3 173/5/3
f 175/4/3 174/4/3 173/4/3
f 176/4/3 174/4/3 175/4/3
f 179/3/3 178/3/3 177/3/3
f 180/3/3 178/3/3 179/3/3
f 183/3/3 182/3/3 181/3/3
f 184/3/3 182/3/3 183/3/3
f 187/3/3 186/3/3 185/3/3
f 188/3/3 186/3/3 187/3/3
f 191/5/3 190/5/3 189/5/3
f 192/5/3 190/5/3 191/5/3
f 195/5/3 194/5/3 193/5/3
f 196/5/3 194/5/3 195/5/3
f 199/5/3 198/5/3 197/5/3
f 200/5/3 198/5/3 199/5/3
f 201/5/4 202/5/4 203/5/4
f 203/5/4 202/5/4 204/5/4
f 205/5/4 206/5/4 207/5/4
f 207/5/4 206/5/4 208/5/4
f 209/5/4 210/5/4 211/5/4
f 211/5/4 210/5/4 212/5/4
f 213/3/4 214/3/4 215/3/4
f 215/3/4 214/3/4 216/3/4
f 217/3/4 218/3/4 219/3/4
f 219/3/4 218/3/4 220/3/4
f 221/3/4 222/3/4 223/3/4
f 223/3/4 222/3/4 224/3/4
f 225/4/4 226/4/4 228/4/4
f 228/4/4 226/4/4 229/4/4
f 227/5/4 228/5/4 230/5/4
f 228/5/4 229/5/4 230/5/4
f 230/5/4 229/5/4 231/5/4
f 227/5/4 230/5/4 232/5/4
f 230/3/4 231/3/4 232/3/4
f 231/5/4 229/5/4 233/5/4
f 232/3/4 231/3/4 233/3/4
f 227/5/4 232/5/4 234/5/4
f 232/5/4 233/5/4 234/5/4
f 234/5/4 233/5/4 235/5/4
f 233/5/4 229/5/4 236/5/4
f 235/5/4 233/5/4 236/5/4
f 235/4/4 236/4/4 238/4/4
f 238/4/4 236/4/4 239/4/4
f 237/5/4 238/5/4 240/5/4
f 238/5/4 239/5/4 240/5/4
f 240/5/4 239/5/4 241/5/4
f 237/5/4 240/5/4 242/5/4
f 240/3/4 241/3/4 242/3/4
f 241/5/4 239/5/4 243/5/4
f 242/3/4 241/3/4 243/3/4
f 237/5/4 242/5/4 244/5/4
f 242/5/4 243/5/4 244/5/4
f 244/5/4 243/5/4 245/5/4
f 243/5/4 239/5/4 246/5/4
f 245/5/4 243/5/4 246/5/4
f 245/4/4 246/4/4 247/4/4
f 247/4/4 246/4/4 248/4/4
f 249/2/4 250/2/4 254/2/4
f 254/2/4 250/2/4 255/2/4
f 253/5/4 254/5/4 256/5/4
f 254/5/4 255/5/4 256/5/4
f 256/5/4 255/5/4 257/5/4
f 253/5/4 256/5/4 258/5/4
f 256/3/4 257/3/4 258/3/4
f 257/5/4 255/5/4 259/5/4
f 258/3/4 257/3/4 259/3/4
f 251/3/4 252/3/4 260/3/4
f 260/3/4 252/3/4 261/3/4
f 258/5/4 259/5/4 262/5/4
f 253/5/4 258/5/4 262/5/4
f 262/5/4 259/5/4 263/5/4
f 259/5/4 255/5/4 264/5/4
f 263/5/4 259/5/4 264/5/4
f 263/4/4 264/4/4 265/4/4
f 265/4/4 264/4/4 266/4/4
f 267/3/4 268/3/4 269/3/4
f 269/3/4 268/3/4 270/3/4
f 271/2/4 272/2/4 273/2/4
f 273/2/4 272/2/4 274/2/4
f 271/2/4 273/2/4 275/2/4
f 273/5/4 274/5/4 276/5/4
f 275/2/4 273/2/4 276/2/4
f 274/2/4 272/2/4 277/2/4
f 276/5/4 274/5/4 277/5/4
f 277/2/4 272/2/4 278/2/4
f 285/5/5 280/5/5 279/5/5
f 286/5/5 280/5/5 285/5/5
f 287/5/5 282/5/5 281/5/5
f 288/5/5 282/5/5 287/5/5
f 289/5/5 284/5/5 283/5/5
f 290/5/5 284/5/5 289/5/5
f 297/5/5 292/5/5 291/5/5
f 298/5/5 292/5/5 297/5/5
f 299/5/5 294/5/5 293/5/5
f 300/5/5 294/5/5 299/5/5
f 301/5/5 296/5/5 295/5/5
f 302/5/5 296/5/5 301/5/5
f 313/4/5 304/4/5 303/4/5
f 314/4/5 304/4/5 313/4/5
f 315/4/5 306/4/5 305/4/5
f 316/4/5 306/4/5 315/4/5
f 317/4/5 308/4/5 307/4/5
f 318/4/5 308/4/5 317/4/5
f 319/2/5 310/2/5 309/2/5
f 320/2/5 310/2/5 319/2/5
f 321/4/5 312/4/5 311/4/5
f 322/3/5 314/3/5 313/3/5
f 322/3/5 316/3/5 315/3/5
f 322/3/5 318/3/5 317/3/5
f 322/4/5 313/4/5 303/4/5
f 322/3/5 319/3/5 318/3/5
f 322/3/5 315/3/5 314/3/5
f 322/3/5 317/3/5 316/3/5
f 323/3/5 319/3/5 322/3/5
f 324/3/5 319/3/5 323/3/5
f 325/3/5 319/3/5 324/3/5
f 326/3/5 319/3/5 325/3/5
f 327/3/5 319/3/5 326/3/5
f 328/2/5 320/2/5 319/2/5
f 328/3/5 319/3/5 327/3/5
f 328/2/5 321/2/5 320/2/5
f 329/2/5 321/2/5 328/2/5
f 330/4/5 312/4/5 321/4/5
f 330/2/5 321/2/5 329/2/5
f 331/4/5 322/4/5 303/4/5
f 331/4/5 323/4/5 322/4/5
f 332/4/5 323/4/5 331/4/5
f 333/4/5 325/4/5 324/4/5
f 334/4/5 325/4/5 333/4/5
f 335/4/5 327/4/5 326/4/5
f 336/4/5 327/4/5 335/4/5
f 337/2/5 329/2/5 328/2/5
f 338/2/5 329/2/5 337/2/5
f 339/4/5 312/4/5 330/4/5
f 340/4/5 312/4/5 339/4/5
f 345/3/5 342/3/5 341/3/5
f 346/3/5 342/3/5 345/3/5
f 347/3/5 342/3/5 346/3/5
f 348/3/5 342/3/5 347/3/5
f 349/3/5 342/3/5 348/3/5
f 350/3/5 342/3/5 349/3/5
f 351/2/5 344/2/5 343/2/5
f 352/2/5 344/2/5 351/2/5
f 353/2/5 344/2/5 352/2/5
f 354/2/5 344/2/5 353/2/5
f 365/3/5 356/3/5 355/3/5
f 365/3/5 357/3/5 356/3/5
f 365/3/5 358/3/5 357/3/5
f 365/3/5 359/3/5 358/3/5
f 365/3/5 360/3/5 359/3/5
f 366/3/5 360/3/5 365/3/5
f 367/2/5 364/2/5 363/2/5
f 367/2/5 363/2/5 362/2/5
f 367/2/5 362/2/5 361/2/5
f 368/2/5 364/2/5 367/2/5
f 369/3/6 370/3/6 371/3/6
f 371/3/6 370/3/6 372/3/6
f 373/3/6 374/3/6 375/3/6
f 375/3/6 374/3/6 376/3/6
f 377/2/6 378/2/6 379/2/6
f 379/2/6 378/2/6 380/2/6
f 381/3/6 382/3/6 383/3/6
f 383/3/6 382/3/6 384/3/6
f 380/2/6 378/2/6 386/2/6
f 385/2/6 386/2/6 387/2/6
f 386/2/6 378/2/6 388/2/6
f 387/2/6 386/2/6 388/2/6
f 389/3/6 390/3/6 391/3/6
f 391/3/6 390/3/6 392/3/6
f 392/3/6 390/3/6 394/3/6
f 393/3/6 394/3/6 395/3/6
f 394/3/6 390/3/6 396/3/6
f 395/3/6 394/3/6 396/3/6
f 397/3/6 398/3/6 399/3/6
f 399/3/6 398/3/6 400/3/6
f 401/3/6 402/3/6 403/3/6
f 403/3/6 402/3/6 404/3/6
